Coordinates
version=1
nRows=6
nColumns=36
inDegrees=yes

Units are S.I. units (second, meters, Newtons, ...)
If the header above contains a line with 'inDegrees', this indicates whether rotational values are in degrees (yes) or radians (no).

endheader
time	pelvis_tilt	pelvis_list	pelvis_rotation	pelvis_tx	pelvis_ty	pelvis_tz	hip_flexion_r	hip_adduction_r	hip_rotation_r	knee_angle_r	knee_angle_r_beta	ankle_angle_r	subtalar_angle_r	mtp_angle_r	hip_flexion_l	hip_adduction_l	hip_rotation_l	knee_angle_l	knee_angle_l_beta	ankle_angle_l	subtalar_angle_l	mtp_angle_l	lumbar_extension	lumbar_bending	lumbar_rotation	arm_flex_r	arm_add_r	arm_rot_r	elbow_flex_r	pro_sup_r	arm_flex_l	arm_add_l	arm_rot_l	elbow_flex_l	pro_sup_l
      3.70000000	    -12.67236218	     -0.96873061	    -22.07605122	      1.10297672	      0.79978822	      0.16008455	     52.62491158	      6.70614685	    -15.59730382	     72.52648406	      1.26582594	     36.60141023	      3.41866682	     -7.49999987	     67.98699678	     -7.02461070	     17.26347015	     20.42035839	      0.35640249	      2.47481877	     14.37345783	     -7.49999987	    -17.43707073	     17.08941936	      3.09412130	     55.16052222	    -10.63135561	     62.31662016	     95.27821491	     91.73056306	     47.88068403	     -0.17144667	     55.60874853	    107.51149352	    108.68292614
      3.71666670	    -14.01915664	     -0.58877984	    -21.75714446	      1.10261553	      0.79461542	      0.15973667	     54.92171616	      6.36957056	    -16.04850307	     73.69116001	      1.28615337	     37.13551017	      3.82840705	     -7.49999987	     69.79127127	     -6.85050401	     17.02025546	     20.45066636	      0.35693146	      2.19909886	     14.27558944	     -7.49999987	    -15.96581597	     17.50103151	      2.99053139	     54.95170539	    -10.65313908	     61.92740596	     95.03973396	     91.63961174	     47.72757621	      0.08804419	     55.45092569	    107.58893613	    108.49088891
      3.73333330	    -14.37462987	     -0.49184652	    -21.54758265	      1.09629696	      0.79462071	      0.15759502	     55.80454664	      6.10118850	    -16.27536665	     74.08167158	      1.29296908	     37.07624992	      3.93119363	     -7.49999987	     70.01743582	     -6.72757599	     16.62327323	     20.34112296	      0.35501957	      1.98639356	     14.31250777	     -7.49999987	    -16.26039650	     17.75119082	      3.23881321	     55.85860675	    -10.55006704	     61.69343046	     94.90352109	     91.65782720	     48.34700779	      0.10541628	     55.41732357	    107.51875371	    108.51865988
      3.75000000	    -15.01208239	     -0.17038137	    -21.23541200	      1.09604315	      0.79022422	      0.15667634	     56.86631568	      5.65585526	    -16.42891872	     74.44342538	      1.29928288	     37.41331649	      4.43185896	     -7.49999987	     70.75903509	     -6.64724095	     15.88189807	     20.32410525	      0.35472255	      1.94576278	     14.32496383	     -7.49999987	    -15.55364886	     17.73217657	      2.91750843	     56.03694119	    -10.64106491	     62.02661982	     94.86434870	     91.22990000	     48.63102281	     -0.25745638	     56.54057332	    107.80449330	    107.90159200
      3.76666670	    -15.23443227	     -0.09181903	    -21.12839082	      1.10093264	      0.79224105	      0.15296054	     56.85518009	      5.51654343	    -16.30410531	     74.17636665	      1.29462183	     37.53102134	      4.34793887	     -7.49999987	     70.63356876	     -6.64420133	     15.18331485	     20.22715493	      0.35303045	      2.31999666	     13.97685904	     -7.49999987	    -15.47456966	     18.11793239	      2.53680863	     55.78011399	    -10.90435818	     62.14423321	     94.96818447	     91.26288734	     48.17908397	     -0.17298397	     56.70914694	    107.66265817	    107.95232046
      3.78333330	    -15.72056191	      0.35195674	    -21.00478113	      1.09563473	      0.79623958	      0.15152329	     57.35615431	      5.15141789	    -16.12173660	     73.80964907	      1.28822140	     37.32580246	      4.21628190	     -7.49999987	     70.62213173	     -6.53997947	     14.49914478	     19.65942155	      0.34312164	      2.31569774	     14.09363421	     -7.49999987	    -15.14695701	     18.11393652	      2.37822847	     55.48194993	    -11.13071698	     62.45451928	     94.99969217	     91.55575734	     47.37063157	      0.28939573	     56.63509513	    106.58616870	    108.30763021
